<svg width="20" height="14" viewBox="0 0 20 14" fill="none" xmlns="http://www.w3.org/2000/svg">
<path d="M10.0026 2.41667C13.1609 2.41667 15.9776 4.19167 17.3526 7C15.9776 9.80833 13.1693 11.5833 10.0026 11.5833C6.83594 11.5833 4.0276 9.80833 2.6526 7C4.0276 4.19167 6.84427 2.41667 10.0026 2.41667ZM10.0026 0.75C5.83594 0.75 2.2776 3.34167 0.835938 7C2.2776 10.6583 5.83594 13.25 10.0026 13.25C14.1693 13.25 17.7276 10.6583 19.1693 7C17.7276 3.34167 14.1693 0.75 10.0026 0.75ZM10.0026 4.91667C11.1526 4.91667 12.0859 5.85 12.0859 7C12.0859 8.15 11.1526 9.08333 10.0026 9.08333C8.8526 9.08333 7.91927 8.15 7.91927 7C7.91927 5.85 8.8526 4.91667 10.0026 4.91667ZM10.0026 3.25C7.93594 3.25 6.2526 4.93333 6.2526 7C6.2526 9.06667 7.93594 10.75 10.0026 10.75C12.0693 10.75 13.7526 9.06667 13.7526 7C13.7526 4.93333 12.0693 3.25 10.0026 3.25Z" fill="#D9D9D9"/>
</svg>
