<svg width="16" height="16" viewBox="0 0 16 16" fill="none" xmlns="http://www.w3.org/2000/svg">
<path d="M7.99909 0.5C12.1408 0.5 15.4982 3.85734 15.4982 7.99908C15.4982 12.1408 12.1408 15.4982 7.99909 15.4982C6.78591 15.4998 5.5906 15.2058 4.51652 14.6418L1.29941 15.4794C1.19191 15.5074 1.07897 15.5068 0.971767 15.4777C0.864565 15.4486 0.766829 15.392 0.688245 15.3135C0.609661 15.235 0.552957 15.1373 0.523754 15.0302C0.49455 14.923 0.493861 14.81 0.521754 14.7025L1.35865 11.4862C0.793099 10.4109 0.498365 9.21398 0.500007 7.99908C0.500007 3.85734 3.85735 0.5 7.99909 0.5ZM8.93798 8.74899H5.56189L5.4854 8.75424C5.35078 8.77276 5.22742 8.8394 5.13812 8.94182C5.04883 9.04425 4.99963 9.17554 4.99963 9.31142C4.99963 9.44731 5.04883 9.5786 5.13812 9.68103C5.22742 9.78345 5.35078 9.85008 5.4854 9.86861L5.56189 9.87386H8.93798L9.01372 9.86861C9.14833 9.85008 9.2717 9.78345 9.36099 9.68103C9.45029 9.5786 9.49949 9.44731 9.49949 9.31142C9.49949 9.17554 9.45029 9.04425 9.36099 8.94182C9.2717 8.8394 9.14833 8.77276 9.01372 8.75424L8.93798 8.74899ZM10.4363 6.12431H5.56189L5.4854 6.12956C5.35078 6.14808 5.22742 6.21472 5.13812 6.31714C5.04883 6.41957 4.99963 6.55086 4.99963 6.68674C4.99963 6.82263 5.04883 6.95392 5.13812 7.05635C5.22742 7.15877 5.35078 7.2254 5.4854 7.24393L5.56189 7.24918H10.4363L10.5128 7.24393C10.6474 7.2254 10.7708 7.15877 10.8601 7.05635C10.9494 6.95392 10.9986 6.82263 10.9986 6.68674C10.9986 6.55086 10.9494 6.41957 10.8601 6.31714C10.7708 6.21472 10.6474 6.14808 10.5128 6.12956L10.4363 6.12431Z" fill="#006BFF"/>
</svg>
