<svg width="16" height="16" viewBox="0 0 16 16" fill="none" xmlns="http://www.w3.org/2000/svg">
<path d="M4.09211 5.19737L1.84211 7.44737C1.69737 7.59211 1.51658 7.6679 1.29974 7.67474C1.08289 7.68158 0.895263 7.60579 0.736842 7.44737C0.592105 7.30263 0.516579 7.12184 0.510263 6.905C0.503947 6.68816 0.572895 6.50053 0.717105 6.34211L1.28947 5.75L0.736842 5.19737C0.578947 5.03947 0.5 4.85526 0.5 4.64474C0.5 4.43421 0.578947 4.25 0.736842 4.09211L1.84211 2.98684L1.26974 2.39474C1.125 2.25 1.05263 2.06921 1.05263 1.85237C1.05263 1.63553 1.13158 1.44789 1.28947 1.28947C1.43421 1.14474 1.61526 1.06921 1.83263 1.06289C2.05 1.05658 2.23737 1.12553 2.39474 1.26974L2.98684 1.84211L4.09211 0.736842C4.25 0.578947 4.43421 0.5 4.64474 0.5C4.85526 0.5 5.03947 0.578947 5.19737 0.736842L5.75 1.28947L6.34211 0.717105C6.48684 0.572368 6.6679 0.5 6.88526 0.5C7.10263 0.5 7.29 0.578947 7.44737 0.736842C7.59211 0.881579 7.66447 1.06579 7.66447 1.28947C7.66447 1.51316 7.59211 1.69737 7.44737 1.84211L5.19737 4.09211L11.9079 10.8026L14.1579 8.55263C14.3026 8.4079 14.4837 8.33237 14.7011 8.32605C14.9184 8.31974 15.1058 8.39526 15.2632 8.55263C15.4079 8.69737 15.4837 8.87842 15.4905 9.09579C15.4974 9.31316 15.4282 9.50053 15.2829 9.6579L14.7105 10.25L15.2632 10.8026C15.4211 10.9605 15.5 11.1447 15.5 11.3553C15.5 11.5658 15.4211 11.75 15.2632 11.9079L14.1579 13.0132L14.7303 13.6053C14.875 13.75 14.9474 13.9308 14.9474 14.1476C14.9474 14.3645 14.8684 14.5521 14.7105 14.7105C14.5658 14.8553 14.385 14.9311 14.1682 14.9379C13.9513 14.9447 13.7637 14.8755 13.6053 14.7303L13.0132 14.1579L11.9079 15.2632C11.75 15.4211 11.5658 15.5 11.3553 15.5C11.1447 15.5 10.9605 15.4211 10.8026 15.2632L10.25 14.7105L9.6579 15.2829C9.51316 15.4276 9.33237 15.5 9.11553 15.5C8.89868 15.5 8.71105 15.4211 8.55263 15.2632C8.4079 15.1184 8.33553 14.9342 8.33553 14.7105C8.33553 14.4868 8.4079 14.3026 8.55263 14.1579L10.8026 11.9079L4.09211 5.19737Z" fill="#A1A1A1"/>
</svg>
