<svg width="16" height="16" viewBox="0 0 16 16" fill="none" xmlns="http://www.w3.org/2000/svg">
<path d="M7.21718 3.31191H9.56563L12.1411 0.731314C12.2139 0.658019 12.3005 0.599842 12.3958 0.560141C12.4912 0.52044 12.5936 0.5 12.6969 0.5C12.8002 0.5 12.9026 0.52044 12.9979 0.560141C13.0933 0.599842 13.1799 0.658019 13.2527 0.731314L15.2724 2.75669C15.4182 2.90321 15.5 3.10141 15.5 3.308C15.5 3.5146 15.4182 3.7128 15.2724 3.85931L13.4797 5.65791H7.21718V7.22191C7.21718 7.42931 7.13471 7.62821 6.9879 7.77487C6.84109 7.92152 6.64198 8.00391 6.43437 8.00391C6.22675 8.00391 6.02764 7.92152 5.88083 7.77487C5.73403 7.62821 5.65155 7.42931 5.65155 7.22191V4.87591C5.65155 4.46111 5.8165 4.0633 6.11011 3.77C6.40373 3.47669 6.80195 3.31191 7.21718 3.31191ZM2.52029 7.22191V10.3499L0.727637 12.1407C0.581837 12.2872 0.5 12.4854 0.5 12.692C0.5 12.8986 0.581837 13.0968 0.727637 13.2433L2.7473 15.2687C2.82008 15.342 2.90666 15.4002 3.00205 15.4399C3.09744 15.4796 3.19976 15.5 3.3031 15.5C3.40644 15.5 3.50876 15.4796 3.60416 15.4399C3.69955 15.4002 3.78613 15.342 3.8589 15.2687L7.21718 11.9139H10.3484C10.5561 11.9139 10.7552 11.8315 10.902 11.6849C11.0488 11.5382 11.1313 11.3393 11.1313 11.1319V10.3499H11.9141C12.1217 10.3499 12.3208 10.2675 12.4676 10.1209C12.6144 9.97421 12.6969 9.77531 12.6969 9.56791V8.78591H13.4797C13.6873 8.78591 13.8864 8.70352 14.0332 8.55687C14.1801 8.41021 14.2625 8.21131 14.2625 8.00391V7.22191H8.78281V8.00391C8.78281 8.41871 8.61786 8.81652 8.32425 9.10982C8.03064 9.40313 7.63241 9.56791 7.21718 9.56791H5.65155C5.23632 9.56791 4.83809 9.40313 4.54448 9.10982C4.25087 8.81652 4.08592 8.41871 4.08592 8.00391V5.65791L2.52029 7.22191Z" fill="#A1A1A1"/>
</svg>
