<svg width="16" height="16" viewBox="0 0 16 16" fill="none" xmlns="http://www.w3.org/2000/svg">
<path d="M7.16629 3.0004H9.66629L12.408 0.250405C12.4854 0.172298 12.5776 0.110303 12.6791 0.0679953C12.7807 0.0256881 12.8896 0.00390625 12.9996 0.00390625C13.1096 0.00390625 13.2185 0.0256881 13.3201 0.0679953C13.4216 0.110303 13.5138 0.172298 13.5913 0.250405L15.7413 2.40874C15.8965 2.56487 15.9836 2.77608 15.9836 2.99624C15.9836 3.21639 15.8965 3.4276 15.7413 3.58374L13.833 5.5004H7.16629V7.16707C7.16629 7.38809 7.07849 7.60005 6.92221 7.75633C6.76593 7.91261 6.55397 8.0004 6.33295 8.0004C6.11194 8.0004 5.89998 7.91261 5.7437 7.75633C5.58742 7.60005 5.49962 7.38809 5.49962 7.16707V4.66707C5.49962 4.22504 5.67521 3.80112 5.98777 3.48856C6.30033 3.176 6.72426 3.0004 7.16629 3.0004ZM2.16629 7.16707V10.5004L0.257952 12.4087C0.102743 12.5649 0.015625 12.7761 0.015625 12.9962C0.015625 13.2164 0.102743 13.4276 0.257952 13.5837L2.40795 15.7421C2.48542 15.8202 2.57759 15.8822 2.67914 15.9245C2.78069 15.9668 2.88961 15.9886 2.99962 15.9886C3.10963 15.9886 3.21855 15.9668 3.3201 15.9245C3.42165 15.8822 3.51382 15.8202 3.59129 15.7421L7.16629 12.1671H10.4996C10.7206 12.1671 10.9326 12.0793 11.0889 11.923C11.2452 11.7667 11.333 11.5548 11.333 11.3337V10.5004H12.1663C12.3873 10.5004 12.5993 10.4126 12.7555 10.2563C12.9118 10.1 12.9996 9.88809 12.9996 9.66707V8.83374H13.833C14.054 8.83374 14.2659 8.74594 14.4222 8.58966C14.5785 8.43338 14.6663 8.22142 14.6663 8.0004V7.16707H8.83295V8.0004C8.83295 8.44243 8.65736 8.86635 8.3448 9.17892C8.03224 9.49148 7.60831 9.66707 7.16629 9.66707H5.49962C5.05759 9.66707 4.63367 9.49148 4.32111 9.17892C4.00855 8.86635 3.83295 8.44243 3.83295 8.0004V5.5004L2.16629 7.16707Z" fill="#006BFF"/>
</svg>
