<svg width="20" height="14" viewBox="0 0 20 14" fill="none" xmlns="http://www.w3.org/2000/svg">
<path fill-rule="evenodd" clip-rule="evenodd" d="M0 3C0 2.20435 0.316071 1.44129 0.87868 0.87868C1.44129 0.316071 2.20435 0 3 0H17C17.7956 0 18.5587 0.316071 19.1213 0.87868C19.6839 1.44129 20 2.20435 20 3V11C20 11.7956 19.6839 12.5587 19.1213 13.1213C18.5587 13.6839 17.7956 14 17 14H3C2.20435 14 1.44129 13.6839 0.87868 13.1213C0.316071 12.5587 0 11.7956 0 11V3ZM9 7C9 6.73478 9.10536 6.48043 9.29289 6.29289C9.48043 6.10536 9.73478 6 10 6C10.2652 6 10.5196 6.10536 10.7071 6.29289C10.8946 6.48043 11 6.73478 11 7C11 7.26522 10.8946 7.51957 10.7071 7.70711C10.5196 7.89464 10.2652 8 10 8C9.73478 8 9.48043 7.89464 9.29289 7.70711C9.10536 7.51957 9 7.26522 9 7ZM10 4C9.20435 4 8.44129 4.31607 7.87868 4.87868C7.31607 5.44129 7 6.20435 7 7C7 7.79565 7.31607 8.55871 7.87868 9.12132C8.44129 9.68393 9.20435 10 10 10C10.7956 10 11.5587 9.68393 12.1213 9.12132C12.6839 8.55871 13 7.79565 13 7C13 6.20435 12.6839 5.44129 12.1213 4.87868C11.5587 4.31607 10.7956 4 10 4Z" fill="#006BFF"/>
</svg>
