<svg width="40" height="40" viewBox="0 0 40 40" fill="none" xmlns="http://www.w3.org/2000/svg">
<g clip-path="url(#clip0_1427_14126)">
<path d="M37.6499 19.0785C37.6234 19.065 37.5968 19.053 37.5703 19.04V26.8411C38.3798 26.445 39.0736 25.7949 39.5188 24.9324C40.6188 22.8001 39.7821 20.1788 37.6499 19.0785Z" fill="#006BFF"/>
<path d="M31.797 20.9474C30.7061 23.0612 31.5197 25.6546 33.6117 26.7708V19.1074C32.8597 19.5082 32.2173 20.1329 31.797 20.9474Z" fill="#006BFF"/>
<path d="M14.5172 27.6745C14.6849 27.7522 14.8566 27.8097 15.0296 27.8497C15.6162 28.0015 16.3906 27.9752 17.4239 27.6828C21.8928 27.1296 23.2014 27.4663 25.881 27.679C27.7891 28.0015 30.0518 27.0497 30.4327 25.415C30.6865 24.3268 30.3622 22.986 29.2883 22.0262C29.3532 22.7473 29.4075 23.2261 29.4223 23.3538L29.4393 23.5019C29.5091 24.0645 29.3555 24.6214 29.0067 25.0691C28.6581 25.5168 28.1553 25.8015 27.5921 25.8713C27.5007 25.8825 27.4124 25.8875 27.3284 25.8875C26.2593 25.8875 25.3539 25.0867 25.2227 24.0248C25.1765 23.6406 25.0282 22.3399 24.9096 20.5515C22.1456 20.1531 19.8591 20.308 16.4696 21.0715C15.4258 21.3867 14.6723 21.7197 14.1419 22.0882C12.7306 21.7628 11.2592 21.6268 9.82446 21.6187C8.41427 21.6214 7.05798 21.7583 5.8112 22.0865C5.18617 22.254 4.58509 22.468 3.9954 22.789C3.41287 23.1127 2.81082 23.5456 2.31636 24.2637C1.95671 24.8043 1.76453 25.2878 1.58104 25.7996C1.27432 26.6864 1.05432 27.6554 0.859433 28.6712C0.288484 31.6926 0.0145979 35.0912 0.00899656 35.138C-0.109597 36.5733 0.958132 37.8326 2.39381 37.951C2.46643 37.957 2.53867 37.9599 2.61014 37.9599C3.95349 37.9601 5.09442 36.9289 5.20664 35.5662C5.20626 35.5654 5.21514 35.459 5.23426 35.2512C5.30071 34.5244 5.48941 32.6373 5.78242 30.8002C5.92786 29.8843 6.10131 28.9785 6.2821 28.2758C6.37153 27.9262 6.46327 27.6268 6.53937 27.4232C6.5527 27.3869 6.56545 27.3541 6.57723 27.3245C6.7501 27.2469 7.0941 27.1206 7.531 27.0383C8.15603 26.9104 8.96958 26.833 9.82484 26.8337C11.5491 26.8206 13.4792 27.1758 14.5172 27.6745Z" fill="#006BFF"/>
<path d="M27.3272 25.5008C27.3985 25.5008 27.4705 25.4966 27.5429 25.4875C28.4963 25.3695 29.1727 24.5016 29.0545 23.5486C29.0545 23.5486 29.0485 23.5011 29.0367 23.398C29.006 23.133 28.9402 22.53 28.8695 21.699C28.747 20.2618 28.6091 18.1407 28.6093 15.8932C28.6091 15.6222 28.6116 15.3493 28.6157 15.0758C28.1747 15.1637 27.7191 15.2106 27.2526 15.2106C26.5173 15.2106 25.8086 15.0949 25.1431 14.8828C25.1371 15.2218 25.133 15.5596 25.1328 15.8932C25.1332 17.6255 25.2087 19.2663 25.2995 20.6114C25.4339 22.6067 25.6014 23.9514 25.6039 23.9767C25.7134 24.8563 26.4625 25.5006 27.3272 25.5008Z" fill="#006BFF"/>
<path d="M27.2578 14.5165C27.7318 14.5165 28.1929 14.462 28.6369 14.3621C28.7685 14.3326 28.8986 14.299 29.0271 14.2613C31.6217 13.4978 33.5165 11.0998 33.5165 8.25804C33.5165 4.80202 30.7143 2 27.258 2C23.802 2 21 4.80221 21 8.25804C21 10.8352 22.5583 13.0479 24.7836 14.0073C24.909 14.0612 25.0368 14.111 25.1662 14.157C25.8202 14.389 26.5241 14.5165 27.2578 14.5165ZM24.7734 8.25784C24.7734 6.88533 25.8859 5.77337 27.2578 5.77337C28.6302 5.77337 29.7427 6.88552 29.7427 8.25784C29.7427 8.68432 29.6347 9.08568 29.4455 9.43663C29.3367 9.6379 29.2003 9.82139 29.0427 9.98441C28.591 10.4516 27.959 10.7433 27.2578 10.7433C26.5787 10.7433 25.9639 10.47 25.5154 10.0283C25.393 9.90753 25.2831 9.77426 25.1875 9.63036C24.9261 9.23692 24.7734 8.76525 24.7734 8.25784Z" fill="#006BFF"/>
<path d="M25.7103 9.01893C25.9909 9.58582 26.5735 9.97637 27.2487 9.97637C27.9891 9.97637 28.6184 9.50702 28.86 8.85069C28.9218 8.68285 28.9581 8.50322 28.9643 8.31548C28.9649 8.29636 28.9672 8.27762 28.9672 8.25831C28.9672 7.30975 28.1977 6.54102 27.2489 6.54102C26.3002 6.54102 25.5312 7.30956 25.5312 8.25831C25.5312 8.33982 25.5388 8.41939 25.55 8.49781C25.5757 8.68285 25.6305 8.85784 25.7103 9.01893Z" fill="#006BFF"/>
<path d="M33.9876 37.6586H37.1742V27.0074V18.872V15.2643V14.0952V8.69727H35.9511V14.0952H34.5305L33.8296 12.845L32.7628 13.4429L33.9878 15.6278V18.9253V26.9532V28.3749H33.6015H10.2314C9.69789 28.3749 9.26562 28.8072 9.26562 29.3407V30.0615V32.0448V37.6583H12.4526V32.0448H33.6013H33.9876V37.6586ZM11.1635 29.6217C11.4596 29.6217 11.7128 29.8038 11.8185 30.0619C11.8525 30.1448 11.8716 30.2348 11.8716 30.33C11.8716 30.7209 11.5546 31.0381 11.1635 31.0381C10.7724 31.0381 10.4554 30.7209 10.4554 30.33C10.4554 30.235 10.4749 30.1448 10.5085 30.0619C10.6144 29.8038 10.8674 29.6217 11.1635 29.6217ZM36.1443 30.33C36.1443 30.7209 35.8269 31.0381 35.4362 31.0381C35.0451 31.0381 34.7277 30.7209 34.7277 30.33C34.7277 29.9389 35.0451 29.6217 35.4362 29.6217C35.8269 29.6217 36.1443 29.9387 36.1443 30.33Z" fill="#006BFF"/>
</g>
<defs>
<clipPath id="clip0_1427_14126">
<rect width="40" height="40" fill="white"/>
</clipPath>
</defs>
</svg>
