<svg width="40" height="40" viewBox="0 0 40 40" fill="none" xmlns="http://www.w3.org/2000/svg">
<path d="M26.2182 8.37389C28.5306 8.37389 30.4051 6.49933 30.4051 4.18694C30.4051 1.87456 28.5306 0 26.2182 0C23.9058 0 22.0312 1.87456 22.0312 4.18694C22.0312 6.49933 23.9058 8.37389 26.2182 8.37389Z" fill="#006BFF"/>
<path d="M15.9265 32.2314L15.6592 37.5571C15.5948 38.8402 16.5828 39.9326 17.8658 39.9969C17.9055 39.9989 17.9451 39.9998 17.9843 39.9998C19.2155 39.9998 20.2431 39.0338 20.3056 37.7904L20.3543 36.8187C18.3183 35.969 16.7057 34.3028 15.9265 32.2314Z" fill="#006BFF"/>
<path d="M18.3944 23.1885L16.2783 20.5465C17.8848 19.7849 19.1509 19.0248 20.3255 18.0941L19.7648 12.7147C19.7115 12.2055 19.86 11.7061 20.1826 11.3085C20.5051 10.9109 20.9632 10.6626 21.4724 10.6096C21.5397 10.6026 21.6064 10.5992 21.6723 10.5992C22.6564 10.5992 23.4754 11.3377 23.5775 12.3172L23.8154 14.5989C25.3424 12.5274 24.9184 10.3145 23.8461 9.20792C22.7072 8.03225 20.4391 8.53946 19.1044 9.93016C17.1067 11.6774 14.328 14.3332 11.3451 15.5663C10.9283 15.7761 10.5947 15.9723 10.3306 16.1617C10.207 16.228 10.0871 16.3048 9.97367 16.3957C8.9709 17.1987 8.80908 18.6626 9.61221 19.6653L15.7089 27.2774C16.161 25.6479 17.1148 24.2256 18.3944 23.1885Z" fill="#006BFF"/>
<path d="M24.0946 21.4309L23.1492 12.3617C23.064 11.5441 22.3309 10.9505 21.5142 11.0354C20.6965 11.1207 20.1026 11.8527 20.1878 12.6705L21.1331 21.7383C21.8612 21.5201 22.632 21.4012 23.4303 21.4012C23.6541 21.4012 23.8753 21.4128 24.0946 21.4309Z" fill="#006BFF"/>
<path d="M23.4346 21.96C19.3157 21.96 15.9766 25.2991 15.9766 29.418C15.9766 33.537 19.3157 36.8761 23.4346 36.8761C27.5536 36.8761 30.8927 33.537 30.8927 29.418C30.8927 25.2991 27.5536 21.96 23.4346 21.96ZM23.4346 33.5453C21.1552 33.5453 19.3074 31.6975 19.3074 29.418C19.3074 27.1386 21.1552 25.2908 23.4346 25.2908C25.7141 25.2908 27.5619 27.1386 27.5619 29.418C27.5619 31.6975 25.7141 33.5453 23.4346 33.5453Z" fill="#007AFF"/>
<path d="M23.4346 30.9385C24.2743 30.9385 24.9551 30.2577 24.9551 29.418C24.9551 28.5782 24.2743 27.8975 23.4346 27.8975C22.5948 27.8975 21.9141 28.5782 21.9141 29.418C21.9141 30.2577 22.5948 30.9385 23.4346 30.9385Z" fill="#006BFF"/>
</svg>
