<svg width="18" height="18" viewBox="0 0 18 18" fill="none" xmlns="http://www.w3.org/2000/svg">
<path d="M15.4438 13.0037C15.5847 12.8633 15.7737 12.7818 15.9725 12.7758C16.1713 12.7697 16.3649 12.8395 16.5141 12.971C16.6632 13.1026 16.7568 13.286 16.7756 13.4839C16.7945 13.6819 16.7373 13.8797 16.6156 14.037L16.5507 14.1106L15.3765 15.2847C15.1497 15.5117 14.8804 15.6918 14.5839 15.8146C14.2875 15.9375 13.9698 16.0007 13.6489 16.0007C13.328 16.0007 13.0103 15.9375 12.7139 15.8146C12.4175 15.6918 12.1481 15.5117 11.9213 15.2847C11.7694 15.1324 11.5667 15.0413 11.3519 15.0288C11.1371 15.0162 10.9252 15.0831 10.7566 15.2166L10.6799 15.2847L10.2885 15.6761C10.1476 15.8165 9.95858 15.898 9.75979 15.9041C9.56101 15.9101 9.36737 15.8403 9.2182 15.7088C9.06903 15.5773 8.97551 15.3939 8.95665 15.1959C8.93779 14.9979 8.995 14.8002 9.11665 14.6428L9.18162 14.5693L9.57301 14.1779C9.79982 13.9509 10.0691 13.7708 10.3656 13.648C10.662 13.5251 10.9797 13.4619 11.3006 13.4619C11.6215 13.4619 11.9392 13.5251 12.2356 13.648C12.5321 13.7708 12.8014 13.9509 13.0282 14.1779C13.1801 14.3302 13.3828 14.4213 13.5976 14.4338C13.8124 14.4464 14.0243 14.3795 14.1929 14.246L14.2696 14.1779L15.4438 13.0037Z" fill="white"/>
<path d="M12.0229 2.58432C12.3805 2.221 12.8657 2.01152 13.3753 2.00046C13.8849 1.9894 14.3787 2.17763 14.7517 2.5251C15.1247 2.87257 15.3473 3.35185 15.3723 3.86098C15.3973 4.37011 15.2227 4.8689 14.8855 5.25123L14.79 5.35299L5.72864 14.4136C5.61595 14.5264 5.48144 14.6151 5.33334 14.6743L5.21984 14.7126L2.99911 15.3443C2.87176 15.3809 2.7372 15.3846 2.60804 15.355C2.47887 15.3255 2.35933 15.2636 2.26061 15.1752C2.16189 15.0868 2.08723 14.9748 2.04361 14.8497C2 14.7245 1.98887 14.5904 2.01125 14.4598L2.03082 14.376L2.66252 12.1545C2.70634 12.0012 2.78091 11.8585 2.8817 11.7349L2.96154 11.6457L12.0229 2.58432Z" stroke="white" stroke-width="1.5"/>
</svg>
