<svg width="40" height="40" viewBox="0 0 40 40" fill="none" xmlns="http://www.w3.org/2000/svg">
<path d="M17.6736 4.35371C17.8414 3.72713 18.0938 3.14592 18.4124 2.61588C18.0484 2.14513 17.5827 1.74118 17.0239 1.44266C14.9082 0.312681 12.2761 1.11189 11.1458 3.2276C10.0158 5.3437 10.815 7.97535 12.9307 9.10532C14.588 9.99065 16.5616 9.69213 17.8822 8.50461C17.3962 7.22036 17.2917 5.77873 17.6736 4.35371Z" fill="#006BFF"/>
<path d="M22.5244 17.6711C22.0123 17.4915 21.76 17.2932 21.5367 17.1188L21.473 17.0688C21.2562 16.8892 21.0563 16.6998 20.8142 16.4469C20.4695 16.0835 20.0984 15.65 19.6466 15.0813C19.0016 14.2673 18.459 13.509 18.3075 13.296C17.6278 12.3298 17.858 11.0023 18.8147 10.3284C18.8373 10.3125 18.8607 10.2984 18.8838 10.2836C18.7431 10.1026 18.6122 9.91457 18.4905 9.7207C17.9657 10.3121 17.5453 11.0758 17.3188 12.0318C16.4103 15.975 16.4144 18.5093 17.4469 22.5756L11.1235 25.6518C10.4534 25.9777 9.96145 26.5643 9.75735 27.2809C9.55286 27.9973 9.66119 28.7551 10.0586 29.3856L15.9801 38.7828C16.4754 39.5691 17.3223 40.0001 18.1881 40.0001C18.663 40.0001 19.1436 39.8705 19.5749 39.5986C20.7933 38.8307 21.1587 37.2213 20.3913 36.0031L16.0205 29.067L22.9305 25.7053C23.1545 25.5964 23.3539 25.4579 23.5306 25.2996C24.829 24.7074 25.7423 23.6129 24.9439 21.1732C24.1933 19.7258 23.8917 18.6091 23.8359 17.6711C23.6277 17.7387 23.4066 17.775 23.1786 17.775C22.9562 17.775 22.7362 17.7402 22.5244 17.6711Z" fill="#006BFF"/>
<path d="M24.7562 13.4582C24.6964 13.2805 24.6309 13.093 24.5569 12.8918C24.1385 12.9121 23.7143 12.8926 23.2883 12.8323C23.0931 12.8047 22.8981 12.7686 22.7027 12.7234C22.6268 12.7059 22.5509 12.6889 22.475 12.6686C21.6648 12.4516 20.9287 12.0951 20.284 11.6332C20.6414 12.4466 20.9243 13.126 21.1392 13.6804C21.3028 14.1004 21.4267 14.4493 21.5157 14.7252C21.1278 14.3192 20.8384 13.9724 20.7789 13.8202C20.4925 13.0814 20.1044 12.1673 19.6203 11.0905C19.4473 10.9296 19.2826 10.761 19.1278 10.584C19.0961 10.6035 19.0642 10.6218 19.0335 10.6437C18.249 11.1961 18.0617 12.2805 18.6141 13.0654V13.0648C18.6255 13.0807 19.2235 13.9303 19.9455 14.8409C20.3083 15.2976 20.6986 15.7679 21.0906 16.1798C21.2883 16.387 21.4847 16.5795 21.7057 16.7627C21.9098 16.9209 22.0979 17.0852 22.47 17.2391C22.526 17.2638 22.5837 17.2862 22.6432 17.3055V17.3047C22.8098 17.3578 23.0112 17.4023 23.2613 17.403H23.2767C23.4395 17.403 23.6297 17.3743 23.8234 17.3146C23.9392 17.2789 24.0559 17.2348 24.1694 17.1717C24.6465 16.9159 24.9323 16.466 25.0395 16.1504C25.1553 15.823 25.1673 15.5802 25.17 15.3711C25.1671 15.1639 25.1484 14.9788 25.1183 14.7978C25.1013 14.6955 25.0808 14.5937 25.0569 14.4908C25.025 14.3539 24.9883 14.2139 24.9468 14.0627C24.8931 13.8772 24.8294 13.6752 24.7562 13.4582Z" fill="#006BFF"/>
<path d="M24.9522 12.1798C27.3624 11.8944 29.4715 10.1805 30.1379 7.69313C31.0116 4.43374 29.0771 1.08301 25.8175 0.209849C23.0076 -0.543596 20.1313 0.79125 18.8314 3.26167C18.6234 3.65693 18.4543 4.08019 18.3338 4.52971C18.0724 5.50521 18.0642 6.48824 18.2658 7.41103C18.305 7.59099 18.3525 7.76863 18.4076 7.94338C18.5503 8.39618 18.7447 8.83006 18.9864 9.23613C19.1463 9.50492 19.3271 9.76096 19.5265 10.0029C19.5468 10.0274 19.5665 10.0521 19.5872 10.0765C19.6636 10.1661 19.7418 10.2543 19.8233 10.3398C20.4186 10.9622 21.1524 11.4638 21.9921 11.7942C22.2012 11.8765 22.4163 11.9489 22.6382 12.0089C22.6436 12.0103 22.6488 12.0122 22.654 12.0136C23.2057 12.1615 23.7599 12.2269 24.3044 12.2211C24.4407 12.2198 24.5767 12.2142 24.7116 12.2036C24.7923 12.1976 24.8725 12.1893 24.9522 12.1798ZM21.8927 5.48358C22.2397 4.18929 23.5699 3.42116 24.8638 3.76834C26.1577 4.11514 26.9264 5.44554 26.5798 6.73965C26.2328 8.03356 24.902 8.80245 23.6079 8.45546C23.3743 8.3929 23.1586 8.29732 22.9628 8.17664C22.6249 7.96829 22.3488 7.6829 22.1514 7.3504C22.0719 7.21658 22.0053 7.07524 21.9527 6.9281C21.8585 6.66492 21.8108 6.38416 21.8127 6.09684C21.8139 5.8941 21.8378 5.68865 21.8927 5.48358Z" fill="#006BFF"/>
<path d="M25.8548 6.54578C26.0946 5.65108 25.5636 4.73128 24.6687 4.49134C23.7738 4.25141 22.8539 4.78219 22.614 5.67689C22.3741 6.57158 22.9051 7.49138 23.8 7.73132C24.6949 7.97126 25.6149 7.44047 25.8548 6.54578Z" fill="#006BFF"/>
</svg>
