<svg width="11" height="11" viewBox="0 0 11 11" fill="none" xmlns="http://www.w3.org/2000/svg">
<path d="M2.48177 10.75V9.58333H4.8151V7.775C4.33872 7.66806 3.91347 7.46642 3.53935 7.17008C3.16524 6.87375 2.89049 6.50178 2.7151 6.05417C1.98594 5.96667 1.37597 5.64836 0.885188 5.09925C0.39441 4.55014 0.148826 3.90594 0.148438 3.16667V2.58333C0.148438 2.2625 0.262771 1.98794 0.491438 1.75967C0.720104 1.53139 0.99466 1.41706 1.3151 1.41667H2.48177V0.25H8.3151V1.41667H9.48177C9.8026 1.41667 10.0774 1.531 10.306 1.75967C10.5347 1.98833 10.6488 2.26289 10.6484 2.58333V3.16667C10.6484 3.90556 10.4029 4.54975 9.91169 5.09925C9.42052 5.64875 8.81055 5.96706 8.08177 6.05417C7.90677 6.50139 7.63222 6.87336 7.2581 7.17008C6.88399 7.46681 6.45855 7.66844 5.98177 7.775V9.58333H8.3151V10.75H2.48177ZM2.48177 4.8V2.58333H1.3151V3.16667C1.3151 3.53611 1.42205 3.86919 1.63594 4.16592C1.84983 4.46264 2.13177 4.674 2.48177 4.8ZM8.3151 4.8C8.6651 4.67361 8.94705 4.46206 9.16094 4.16533C9.37483 3.86861 9.48177 3.53572 9.48177 3.16667V2.58333H8.3151V4.8Z" fill="#22B892"/>
</svg>
