<svg width="17" height="13" viewBox="0 0 17 13" fill="none" xmlns="http://www.w3.org/2000/svg">
<path d="M11.7208 10.707L12.7919 9.4303L13.2175 9.78753L12.1464 11.0642L11.7208 10.707ZM13.1486 9.0053L14.2197 7.72919L14.6452 8.08641L13.5741 9.36253L13.1486 9.0053ZM12.5719 11.4225L13.643 10.1464L14.0686 10.5036L12.9975 11.7797L12.5719 11.4225ZM14.0008 9.71919L15.073 8.44308L15.4986 8.80086L14.4264 10.0764L14.0008 9.71919ZM13.4225 12.137L14.4947 10.8609L14.9197 11.2181L13.848 12.4942L13.4225 12.137ZM14.8508 10.4342L15.9214 9.15641L16.3475 9.51364L15.2769 10.7914L14.8508 10.4342ZM14.853 2.56641L15.2786 2.20919L16.3508 3.48641L15.9247 3.84364L14.853 2.56641ZM13.4241 0.863082L13.8497 0.505859L14.9208 1.78308L14.4947 2.13975L13.4241 0.863082ZM12.5725 1.57864L12.998 1.22142L15.498 4.2003L15.0725 4.55753L12.5725 1.57864ZM11.7214 2.29197L12.1475 1.93475L13.218 3.21142L12.7925 3.56808L11.7214 2.29197ZM13.1491 3.99475L13.5747 3.63753L14.6469 4.91364L14.2219 5.27086L13.1491 3.99475ZM1.75747 8.08586L2.18302 7.72864L4.68247 10.7081L4.25635 11.0653L1.75747 8.08586ZM0.907465 8.8003L1.33247 8.44364L2.40413 9.7203L1.97802 10.0775L0.907465 8.8003ZM2.33358 10.5036L2.75913 10.1464L3.83135 11.4225L3.4058 11.7797L2.33358 10.5036ZM0.055243 9.51419L0.480799 9.15697L2.9808 12.1359L2.55469 12.4931L0.055243 9.51419ZM0.0546875 3.4853L2.55358 0.506415L2.97969 0.863082L0.479687 3.84253L0.0546875 3.4853ZM0.905799 4.2003L3.4058 1.22086L3.83135 1.57808L1.33135 4.55697L0.905799 4.2003ZM1.75747 4.91419L4.25746 1.93475L4.68302 2.29197L2.18302 5.27142L1.75747 4.91419Z" fill="#292F33"/>
</svg>
