<svg width="98" height="38" viewBox="0 0 98 38" fill="none" xmlns="http://www.w3.org/2000/svg">
<g clip-path="url(#clip0_1427_16724)">
<path d="M49.6484 38H61.6116L73.5748 19H61.6116L49.6484 38Z" fill="#006BFF"/>
<path d="M73.5726 0H61.6094L73.5726 19L79.5529 9.50123L73.5726 0Z" fill="#006BFF"/>
<path d="M97.4941 0H85.531L73.5703 19L85.531 38H97.4941L85.531 19L97.4941 0Z" fill="#006BFF"/>
<path d="M21.3727 7.48445H9.18619V14.6736H20.4691V21.9169H9.18619V37.4058H0.5V0.241211H21.3727V7.48445Z" fill="#141414"/>
<path d="M32.3727 12.5557V37.4058H24.25V12.5557H32.3727Z" fill="#141414"/>
<path d="M46.193 19.0192V37.4074H38.0703V4.53027H46.193V12.5548H51.2138V19.0192H46.193Z" fill="#141414"/>
<path d="M24.25 12.6139L32.3752 4.74902H24.25V12.6139Z" fill="#141414"/>
</g>
<defs>
<clipPath id="clip0_1427_16724">
<rect width="97" height="38" fill="white" transform="translate(0.5)"/>
</clipPath>
</defs>
</svg>
